<?xml version="1.0" encoding="utf-8" ?>
<svg xmlns="http://www.w3.org/2000/svg" xmlns:cc="http://creativecommons.org/ns" xmlns:dc="http://purl.org/dc/elements/1.1/" xmlns:ev="http://www.w3.org/2001/xml-events" xmlns:inkscape="http://www.inkscape.org/namespaces/inkscape" xmlns:rdf="http://www.w3.org/1999/02/22-rdf-syntax-ns" xmlns:sodipodi="http://sodipodi.sourceforge.net/DTD/sodipodi-0.dtd" xmlns:xlink="http://www.w3.org/1999/xlink" baseProfile="tiny" height="25.0000135cm" version="1.2" viewBox="0 0 944.8824000000001 944.8824000000001" width="25.0000135cm">
  <metadata>
    <rdf:RDF>
      <cc:Work>
        <dc:format>image/svg+xml</dc:format>
        <dc:source>vpype read line_0.svg read line_1.svg read line_2.svg read line_3.svg read line_4.svg read line_5.svg read line_6.svg read line_7.svg write out.svg
</dc:source>
        <dc:date>2025-06-09T15:15:16.832308</dc:date>
      </cc:Work>
    </rdf:RDF>
  </metadata>
  <defs/>
  <g fill="none" id="layer1" inkscape:groupmode="layer" inkscape:label="1" stroke="#0000ff" stroke-width="1.0" style="display:inline">
    <line x1="103.1251" x2="110.9376" y1="161.2501" y2="194.0626"/>
    <line x1="118.7501" x2="110.9376" y1="161.2501" y2="194.0626"/>
    <line x1="118.7501" x2="126.5626" y1="161.2501" y2="194.0626"/>
    <line x1="134.3751" x2="126.5626" y1="161.2501" y2="194.0626"/>
    <polyline points="142.1876,181.5626 160.9376,181.5626 160.9376,178.4376 159.3751,175.3126 157.8126,173.7501 154.6876,172.1876 150.0001,172.1876 146.8751,173.7501 143.7501,176.8751 142.1876,181.5626 142.1876,184.6876 143.7501,189.3751 146.8751,192.5001 150.0001,194.0626 154.6876,194.0626 157.8126,192.5001 160.9376,189.3751"/>
    <line x1="189.0626" x2="189.0626" y1="172.1876" y2="194.0626"/>
    <polyline points="189.0626,176.8751 185.9376,173.7501 182.8126,172.1876 178.1251,172.1876 175.0001,173.7501 171.8751,176.8751 170.3126,181.5626 170.3126,184.6876 171.8751,189.3751 175.0001,192.5001 178.1251,194.0626 182.8126,194.0626 185.9376,192.5001 189.0626,189.3751"/>
    <polyline points="203.1251,161.2501 203.1251,187.8126 204.6876,192.5001 207.8126,194.0626 210.9376,194.0626"/>
    <line x1="198.4376" x2="209.3751" y1="172.1876" y2="172.1876"/>
    <line x1="220.3126" x2="220.3126" y1="161.2501" y2="194.0626"/>
    <polyline points="220.3126,178.4376 225.0001,173.7501 228.1251,172.1876 232.8126,172.1876 235.9376,173.7501 237.5001,178.4376 237.5001,194.0626"/>
    <polyline points="248.4376,181.5626 267.1876,181.5626 267.1876,178.4376 265.6251,175.3126 264.0626,173.7501 260.9376,172.1876 256.2501,172.1876 253.1251,173.7501 250.0001,176.8751 248.4376,181.5626 248.4376,184.6876 250.0001,189.3751 253.1251,192.5001 256.2501,194.0626 260.9376,194.0626 264.0626,192.5001 267.1876,189.3751"/>
    <line x1="278.1252" x2="278.1252" y1="172.1876" y2="194.0626"/>
    <polyline points="278.1252,181.5626 279.6877,176.8751 282.8127,173.7501 285.9377,172.1876 290.6252,172.1876"/>
    <line x1="323.4377" x2="323.4377" y1="161.2501" y2="194.0626"/>
    <polyline points="323.4377,161.2501 337.5002,161.2501 342.1877,162.8126 343.7502,164.3751 345.3127,167.5001 345.3127,170.6251 343.7502,173.7501 342.1877,175.3126 337.5002,176.8751 323.4377,176.8751"/>
    <line x1="334.3752" x2="345.3127" y1="176.8751" y2="194.0626"/>
    <polyline points="354.6877,181.5626 373.4377,181.5626 373.4377,178.4376 371.8752,175.3126 370.3127,173.7501 367.1877,172.1876 362.5002,172.1876 359.3752,173.7501 356.2502,176.8751 354.6877,181.5626 354.6877,184.6876 356.2502,189.3751 359.3752,192.5001 362.5002,194.0626 367.1877,194.0626 370.3127,192.5001 373.4377,189.3751"/>
    <line x1="384.3752" x2="384.3752" y1="172.1876" y2="205.0001"/>
    <polyline points="384.3752,176.8751 387.5002,173.7501 390.6252,172.1876 395.3127,172.1876 398.4377,173.7501 401.5627,176.8751 403.1252,181.5626 403.1252,184.6876 401.5627,189.3751 398.4377,192.5001 395.3127,194.0626 390.6252,194.0626 387.5002,192.5001 384.3752,189.3751"/>
    <polygon points="420.3127,172.1876 417.1877,173.7501 414.0627,176.8751 412.5002,181.5626 412.5002,184.6876 414.0627,189.3751 417.1877,192.5001 420.3127,194.0626 425.0002,194.0626 428.1252,192.5001 431.2502,189.3751 432.8127,184.6876 432.8127,181.5626 431.2502,176.8751 428.1252,173.7501 425.0002,172.1876"/>
    <line x1="443.7502" x2="443.7502" y1="172.1876" y2="194.0626"/>
    <polyline points="443.7502,181.5626 445.3127,176.8751 448.4377,173.7501 451.5627,172.1876 456.2502,172.1876"/>
    <polyline points="465.6253,161.2501 465.6253,187.8126 467.1878,192.5001 470.3128,194.0626 473.4378,194.0626"/>
    <line x1="460.9377" x2="471.8753" y1="172.1876" y2="172.1876"/>
    <polyline points="106.2501,249.0626 106.2501,247.5001 107.8126,244.3751 109.3751,242.8126 112.5001,241.2501 118.7501,241.2501 121.8751,242.8126 123.4376,244.3751 125.0001,247.5001 125.0001,250.6251 123.4376,253.7501 120.3126,258.4376 104.6876,274.0626 126.5626,274.0626"/>
    <polygon points="145.3126,241.2501 140.6251,242.8126 137.5001,247.5001 135.9376,255.3126 135.9376,260.0001 137.5001,267.8126 140.6251,272.5001 145.3126,274.0626 148.4376,274.0626 153.1251,272.5001 156.2501,267.8126 157.8126,260.0001 157.8126,255.3126 156.2501,247.5001 153.1251,242.8126 148.4376,241.2501"/>
    <polyline points="168.7501,249.0626 168.7501,247.5001 170.3126,244.3751 171.8751,242.8126 175.0001,241.2501 181.2501,241.2501 184.3751,242.8126 185.9376,244.3751 187.5001,247.5001 187.5001,250.6251 185.9376,253.7501 182.8126,258.4376 167.1876,274.0626 189.0626,274.0626"/>
    <polyline points="217.1876,241.2501 201.5626,241.2501 200.0001,255.3126 201.5626,253.7501 206.2501,252.1876 210.9376,252.1876 215.6251,253.7501 218.7501,256.8751 220.3126,261.5626 220.3126,264.6876 218.7501,269.3751 215.6251,272.5001 210.9376,274.0626 206.2501,274.0626 201.5626,272.5001 200.0001,270.9376 198.4376,267.8126"/>
    <line x1="231.2501" x2="259.3751" y1="260.0001" y2="260.0001"/>
    <polygon points="279.6877,241.2501 275.0001,242.8126 271.8751,247.5001 270.3126,255.3126 270.3126,260.0001 271.8751,267.8126 275.0001,272.5001 279.6877,274.0626 282.8127,274.0626 287.5002,272.5001 290.6252,267.8126 292.1877,260.0001 292.1877,255.3126 290.6252,247.5001 287.5002,242.8126 282.8127,241.2501"/>
    <polyline points="321.8752,245.9376 320.3127,242.8126 315.6252,241.2501 312.5002,241.2501 307.8127,242.8126 304.6877,247.5001 303.1252,255.3126 303.1252,263.1251 304.6877,269.3751 307.8127,272.5001 312.5002,274.0626 314.0627,274.0626 318.7502,272.5001 321.8752,269.3751 323.4377,264.6876 323.4377,263.1251 321.8752,258.4376 318.7502,255.3126 314.0627,253.7501 312.5002,253.7501 307.8127,255.3126 304.6877,258.4376 303.1252,263.1251"/>
    <line x1="334.3752" x2="362.5002" y1="260.0001" y2="260.0001"/>
    <polygon points="382.8127,241.2501 378.1252,242.8126 375.0002,247.5001 373.4377,255.3126 373.4377,260.0001 375.0002,267.8126 378.1252,272.5001 382.8127,274.0626 385.9377,274.0626 390.6252,272.5001 393.7502,267.8126 395.3127,260.0001 395.3127,255.3126 393.7502,247.5001 390.6252,242.8126 385.9377,241.2501"/>
    <polyline points="425.0002,252.1876 423.4377,256.8751 420.3127,260.0001 415.6252,261.5626 414.0627,261.5626 409.3752,260.0001 406.2502,256.8751 404.6877,252.1876 404.6877,250.6251 406.2502,245.9376 409.3752,242.8126 414.0627,241.2501 415.6252,241.2501 420.3127,242.8126 423.4377,245.9376 425.0002,252.1876 425.0002,260.0001 423.4377,267.8126 420.3127,272.5001 415.6252,274.0626 412.5002,274.0626 407.8127,272.5001 406.2502,269.3751"/>
    <polyline points="465.6253,247.5001 468.7503,245.9376 473.4378,241.2501 473.4378,274.0626"/>
    <polyline points="510.9378,241.2501 495.3128,241.2501 493.7503,255.3126 495.3128,253.7501 500.0003,252.1876 504.6878,252.1876 509.3753,253.7501 512.5003,256.8751 514.0628,261.5626 514.0628,264.6876 512.5003,269.3751 509.3753,272.5001 504.6878,274.0626 500.0003,274.0626 495.3128,272.5001 493.7503,270.9376 492.1878,267.8126"/>
    <polygon points="525.0003,255.3126 523.4378,256.8751 525.0003,258.4376 526.5628,256.8751"/>
    <polygon points="525.0003,266.2501 523.4378,267.8126 525.0003,269.3751 526.5628,267.8126"/>
    <polyline points="540.6253,247.5001 543.7503,245.9376 548.4378,241.2501 548.4378,274.0626"/>
    <polyline points="585.9378,241.2501 570.3128,241.2501 568.7503,255.3126 570.3128,253.7501 575.0003,252.1876 579.6878,252.1876 584.3753,253.7501 587.5003,256.8751 589.0628,261.5626 589.0628,264.6876 587.5003,269.3751 584.3753,272.5001 579.6878,274.0626 575.0003,274.0626 570.3128,272.5001 568.7503,270.9376 567.1878,267.8126"/>
    <polygon points="600.0003,255.3126 598.4378,256.8751 600.0003,258.4376 601.5628,256.8751"/>
    <polygon points="600.0003,266.2501 598.4378,267.8126 600.0003,269.3751 601.5628,267.8126"/>
    <polyline points="615.6253,247.5001 618.7503,245.9376 623.4378,241.2501 623.4378,274.0626"/>
    <polyline points="657.8129,241.2501 642.1878,263.1251 665.6254,263.1251"/>
    <line x1="657.8129" x2="657.8129" y1="241.2501" y2="274.0626"/>
    <line x1="112.5001" x2="112.5001" y1="321.2502" y2="354.0627"/>
    <line x1="101.5626" x2="123.4376" y1="321.2502" y2="321.2502"/>
    <polyline points="129.6876,341.5627 148.4376,341.5627 148.4376,338.4377 146.8751,335.3127 145.3126,333.7502 142.1876,332.1877 137.5001,332.1877 134.3751,333.7502 131.2501,336.8752 129.6876,341.5627 129.6876,344.6877 131.2501,349.3752 134.3751,352.5002 137.5001,354.0627 142.1876,354.0627 145.3126,352.5002 148.4376,349.3752"/>
    <line x1="159.3751" x2="159.3751" y1="332.1877" y2="354.0627"/>
    <polyline points="159.3751,338.4377 164.0626,333.7502 167.1876,332.1877 171.8751,332.1877 175.0001,333.7502 176.5626,338.4377 176.5626,354.0627"/>
    <polyline points="176.5626,338.4377 181.2501,333.7502 184.3751,332.1877 189.0626,332.1877 192.1876,333.7502 193.7501,338.4377 193.7501,354.0627"/>
    <line x1="206.2501" x2="206.2501" y1="332.1877" y2="365.0002"/>
    <polyline points="206.2501,336.8752 209.3751,333.7502 212.5001,332.1877 217.1876,332.1877 220.3126,333.7502 223.4376,336.8752 225.0001,341.5627 225.0001,344.6877 223.4376,349.3752 220.3126,352.5002 217.1876,354.0627 212.5001,354.0627 209.3751,352.5002 206.2501,349.3752"/>
    <polygon points="235.9376,335.3127 234.3751,336.8752 235.9376,338.4377 237.5001,336.8752"/>
    <polygon points="235.9376,346.2502 234.3751,347.8127 235.9376,349.3752 237.5001,347.8127"/>
    <polyline points="276.5626,327.5002 279.6877,325.9377 284.3752,321.2502 284.3752,354.0627"/>
    <polyline points="323.4377,332.1877 321.8752,336.8752 318.7502,340.0002 314.0627,341.5627 312.5002,341.5627 307.8127,340.0002 304.6877,336.8752 303.1252,332.1877 303.1252,330.6252 304.6877,325.9377 307.8127,322.8127 312.5002,321.2502 314.0627,321.2502 318.7502,322.8127 321.8752,325.9377 323.4377,332.1877 323.4377,340.0002 321.8752,347.8127 318.7502,352.5002 314.0627,354.0627 310.9377,354.0627 306.2502,352.5002 304.6877,349.3752"/>
    <polygon points="335.9377,346.2502 334.3752,347.8127 335.9377,349.3752 337.5002,347.8127"/>
    <polygon points="354.6877,321.2502 350.0002,322.8127 348.4377,325.9377 348.4377,329.0627 350.0002,332.1877 353.1252,333.7502 359.3752,335.3127 364.0627,336.8752 367.1877,340.0002 368.7502,343.1252 368.7502,347.8127 367.1877,350.9377 365.6252,352.5002 360.9377,354.0627 354.6877,354.0627 350.0002,352.5002 348.4377,350.9377 346.8752,347.8127 346.8752,343.1252 348.4377,340.0002 351.5627,336.8752 356.2502,335.3127 362.5002,333.7502 365.6252,332.1877 367.1877,329.0627 367.1877,325.9377 365.6252,322.8127 360.9377,321.2502"/>
    <line x1="421.8752" x2="421.8752" y1="321.2502" y2="354.0627"/>
    <polyline points="421.8752,336.8752 418.7502,333.7502 415.6252,332.1877 410.9377,332.1877 407.8127,333.7502 404.6877,336.8752 403.1252,341.5627 403.1252,344.6877 404.6877,349.3752 407.8127,352.5002 410.9377,354.0627 415.6252,354.0627 418.7502,352.5002 421.8752,349.3752"/>
    <polyline points="432.8127,341.5627 451.5627,341.5627 451.5627,338.4377 450.0002,335.3127 448.4377,333.7502 445.3127,332.1877 440.6252,332.1877 437.5002,333.7502 434.3752,336.8752 432.8127,341.5627 432.8127,344.6877 434.3752,349.3752 437.5002,352.5002 440.6252,354.0627 445.3127,354.0627 448.4377,352.5002 451.5627,349.3752"/>
    <polyline points="479.6878,332.1877 479.6878,357.1877 478.1253,361.8752 476.5628,363.4377 473.4378,365.0002 468.7503,365.0002 465.6253,363.4377"/>
    <polyline points="479.6878,336.8752 476.5628,333.7502 473.4378,332.1877 468.7503,332.1877 465.6253,333.7502 462.5002,336.8752 460.9377,341.5627 460.9377,344.6877 462.5002,349.3752 465.6253,352.5002 468.7503,354.0627 473.4378,354.0627 476.5628,352.5002 479.6878,349.3752"/>
    <line x1="492.1878" x2="492.1878" y1="332.1877" y2="354.0627"/>
    <polyline points="492.1878,341.5627 493.7503,336.8752 496.8753,333.7502 500.0003,332.1877 504.6878,332.1877"/>
    <polyline points="510.9378,341.5627 529.6878,341.5627 529.6878,338.4377 528.1253,335.3127 526.5628,333.7502 523.4378,332.1877 518.7503,332.1877 515.6253,333.7502 512.5003,336.8752 510.9378,341.5627 510.9378,344.6877 512.5003,349.3752 515.6253,352.5002 518.7503,354.0627 523.4378,354.0627 526.5628,352.5002 529.6878,349.3752"/>
    <polyline points="539.0628,341.5627 557.8128,341.5627 557.8128,338.4377 556.2503,335.3127 554.6878,333.7502 551.5628,332.1877 546.8753,332.1877 543.7503,333.7502 540.6253,336.8752 539.0628,341.5627 539.0628,344.6877 540.6253,349.3752 543.7503,352.5002 546.8753,354.0627 551.5628,354.0627 554.6878,352.5002 557.8128,349.3752"/>
    <polyline points="615.6253,329.0627 614.0628,325.9377 610.9378,322.8127 607.8128,321.2502 601.5628,321.2502 598.4378,322.8127 595.3128,325.9377 593.7503,329.0627 592.1878,333.7502 592.1878,341.5627 593.7503,346.2502 595.3128,349.3752 598.4378,352.5002 601.5628,354.0627 607.8128,354.0627 610.9378,352.5002 614.0628,349.3752 615.6253,346.2502"/>
    <polyline points="625.0003,341.5627 643.7503,341.5627 643.7503,338.4377 642.1878,335.3127 640.6253,333.7502 637.5003,332.1877 632.8128,332.1877 629.6878,333.7502 626.5628,336.8752 625.0003,341.5627 625.0003,344.6877 626.5628,349.3752 629.6878,352.5002 632.8128,354.0627 637.5003,354.0627 640.6253,352.5002 643.7503,349.3752"/>
    <line x1="654.6879" x2="654.6879" y1="321.2502" y2="354.0627"/>
    <polyline points="682.8129,336.8752 681.2504,333.7502 676.5629,332.1877 671.8754,332.1877 667.1879,333.7502 665.6254,336.8752 667.1879,340.0002 670.3129,341.5627 678.1254,343.1252 681.2504,344.6877 682.8129,347.8127 682.8129,349.3752 681.2504,352.5002 676.5629,354.0627 671.8754,354.0627 667.1879,352.5002 665.6254,349.3752"/>
    <polygon points="692.1879,321.2502 693.7504,322.8127 695.3129,321.2502 693.7504,319.6877"/>
    <line x1="693.7504" x2="693.7504" y1="332.1877" y2="354.0627"/>
    <polyline points="706.2504,332.1877 706.2504,347.8127 707.8129,352.5002 710.9379,354.0627 715.6254,354.0627 718.7504,352.5002 723.4379,347.8127"/>
    <line x1="723.4379" x2="723.4379" y1="332.1877" y2="354.0627"/>
    <polyline points="751.5629,336.8752 750.0004,333.7502 745.3129,332.1877 740.6254,332.1877 735.9379,333.7502 734.3754,336.8752 735.9379,340.0002 739.0629,341.5627 746.8754,343.1252 750.0004,344.6877 751.5629,347.8127 751.5629,349.3752 750.0004,352.5002 745.3129,354.0627 740.6254,354.0627 735.9379,352.5002 734.3754,349.3752"/>
    <line x1="106.2501" x2="106.2501" y1="401.2502" y2="434.0627"/>
    <line x1="128.1251" x2="128.1251" y1="401.2502" y2="434.0627"/>
    <line x1="106.2501" x2="128.1251" y1="416.8752" y2="416.8752"/>
    <polyline points="140.6251,412.1877 140.6251,427.8127 142.1876,432.5002 145.3126,434.0627 150.0001,434.0627 153.1251,432.5002 157.8126,427.8127"/>
    <line x1="157.8126" x2="157.8126" y1="412.1877" y2="434.0627"/>
    <line x1="170.3126" x2="170.3126" y1="412.1877" y2="434.0627"/>
    <polyline points="170.3126,418.4377 175.0001,413.7502 178.1251,412.1877 182.8126,412.1877 185.9376,413.7502 187.5001,418.4377 187.5001,434.0627"/>
    <polyline points="187.5001,418.4377 192.1876,413.7502 195.3126,412.1877 200.0001,412.1877 203.1251,413.7502 204.6876,418.4377 204.6876,434.0627"/>
    <polygon points="215.6251,401.2502 217.1876,402.8127 218.7501,401.2502 217.1876,399.6877"/>
    <line x1="217.1876" x2="217.1876" y1="412.1877" y2="434.0627"/>
    <line x1="246.8751" x2="246.8751" y1="401.2502" y2="434.0627"/>
    <polyline points="246.8751,416.8752 243.7501,413.7502 240.6251,412.1877 235.9376,412.1877 232.8126,413.7502 229.6876,416.8752 228.1251,421.5627 228.1251,424.6877 229.6876,429.3752 232.8126,432.5002 235.9376,434.0627 240.6251,434.0627 243.7501,432.5002 246.8751,429.3752"/>
    <polygon points="257.8126,401.2502 259.3751,402.8127 260.9376,401.2502 259.3751,399.6877"/>
    <line x1="259.3751" x2="259.3751" y1="412.1877" y2="434.0627"/>
    <polyline points="273.4376,401.2502 273.4376,427.8127 275.0001,432.5002 278.1252,434.0627 281.2502,434.0627"/>
    <line x1="268.7501" x2="279.6877" y1="412.1877" y2="412.1877"/>
    <line x1="287.5002" x2="296.8752" y1="412.1877" y2="434.0627"/>
    <polyline points="306.2502,412.1877 296.8752,434.0627 293.7502,440.3127 290.6252,443.4377 287.5002,445.0002 285.9377,445.0002"/>
    <polygon points="315.6252,415.3127 314.0627,416.8752 315.6252,418.4377 317.1877,416.8752"/>
    <polygon points="315.6252,426.2502 314.0627,427.8127 315.6252,429.3752 317.1877,427.8127"/>
    <polyline points="370.3127,401.2502 354.6877,401.2502 353.1252,415.3127 354.6877,413.7502 359.3752,412.1877 364.0627,412.1877 368.7502,413.7502 371.8752,416.8752 373.4377,421.5627 373.4377,424.6877 371.8752,429.3752 368.7502,432.5002 364.0627,434.0627 359.3752,434.0627 354.6877,432.5002 353.1252,430.9377 351.5627,427.8127"/>
    <polyline points="403.1252,405.9377 401.5627,402.8127 396.8752,401.2502 393.7502,401.2502 389.0627,402.8127 385.9377,407.5002 384.3752,415.3127 384.3752,423.1252 385.9377,429.3752 389.0627,432.5002 393.7502,434.0627 395.3127,434.0627 400.0002,432.5002 403.1252,429.3752 404.6877,424.6877 404.6877,423.1252 403.1252,418.4377 400.0002,415.3127 395.3127,413.7502 393.7502,413.7502 389.0627,415.3127 385.9377,418.4377 384.3752,423.1252"/>
    <polygon points="415.6252,426.2502 414.0627,427.8127 415.6252,429.3752 417.1877,427.8127"/>
    <polygon points="435.9377,401.2502 431.2502,402.8127 428.1252,407.5002 426.5627,415.3127 426.5627,420.0002 428.1252,427.8127 431.2502,432.5002 435.9377,434.0627 439.0627,434.0627 443.7502,432.5002 446.8752,427.8127 448.4377,420.0002 448.4377,415.3127 446.8752,407.5002 443.7502,402.8127 439.0627,401.2502"/>
    <line x1="484.3753" x2="484.3753" y1="412.1877" y2="445.0002"/>
    <polyline points="484.3753,416.8752 487.5003,413.7502 490.6253,412.1877 495.3128,412.1877 498.4378,413.7502 501.5628,416.8752 503.1253,421.5627 503.1253,424.6877 501.5628,429.3752 498.4378,432.5002 495.3128,434.0627 490.6253,434.0627 487.5003,432.5002 484.3753,429.3752"/>
    <polyline points="512.5003,421.5627 531.2503,421.5627 531.2503,418.4377 529.6878,415.3127 528.1253,413.7502 525.0003,412.1877 520.3128,412.1877 517.1878,413.7502 514.0628,416.8752 512.5003,421.5627 512.5003,424.6877 514.0628,429.3752 517.1878,432.5002 520.3128,434.0627 525.0003,434.0627 528.1253,432.5002 531.2503,429.3752"/>
    <line x1="542.1878" x2="542.1878" y1="412.1877" y2="434.0627"/>
    <polyline points="542.1878,421.5627 543.7503,416.8752 546.8753,413.7502 550.0003,412.1877 554.6878,412.1877"/>
    <polyline points="579.6878,416.8752 576.5628,413.7502 573.4378,412.1877 568.7503,412.1877 565.6253,413.7502 562.5003,416.8752 560.9378,421.5627 560.9378,424.6877 562.5003,429.3752 565.6253,432.5002 568.7503,434.0627 573.4378,434.0627 576.5628,432.5002 579.6878,429.3752"/>
    <polyline points="589.0628,421.5627 607.8128,421.5627 607.8128,418.4377 606.2503,415.3127 604.6878,413.7502 601.5628,412.1877 596.8753,412.1877 593.7503,413.7502 590.6253,416.8752 589.0628,421.5627 589.0628,424.6877 590.6253,429.3752 593.7503,432.5002 596.8753,434.0627 601.5628,434.0627 604.6878,432.5002 607.8128,429.3752"/>
    <line x1="618.7503" x2="618.7503" y1="412.1877" y2="434.0627"/>
    <polyline points="618.7503,418.4377 623.4378,413.7502 626.5628,412.1877 631.2503,412.1877 634.3753,413.7502 635.9378,418.4377 635.9378,434.0627"/>
    <polyline points="650.0004,401.2502 650.0004,427.8127 651.5629,432.5002 654.6879,434.0627 657.8129,434.0627"/>
    <line x1="645.3128" x2="656.2504" y1="412.1877" y2="412.1877"/>
    <line x1="103.1251" x2="110.9376" y1="481.2503" y2="514.0628"/>
    <line x1="118.7501" x2="110.9376" y1="481.2503" y2="514.0628"/>
    <line x1="118.7501" x2="126.5626" y1="481.2503" y2="514.0628"/>
    <line x1="134.3751" x2="126.5626" y1="481.2503" y2="514.0628"/>
    <polygon points="142.1876,481.2503 143.7501,482.8128 145.3126,481.2503 143.7501,479.6878"/>
    <line x1="143.7501" x2="143.7501" y1="492.1878" y2="514.0628"/>
    <line x1="156.2501" x2="156.2501" y1="492.1878" y2="514.0628"/>
    <polyline points="156.2501,498.4378 160.9376,493.7503 164.0626,492.1878 168.7501,492.1878 171.8751,493.7503 173.4376,498.4378 173.4376,514.0628"/>
    <line x1="203.1251" x2="203.1251" y1="481.2503" y2="514.0628"/>
    <polyline points="203.1251,496.8753 200.0001,493.7503 196.8751,492.1878 192.1876,492.1878 189.0626,493.7503 185.9376,496.8753 184.3751,501.5628 184.3751,504.6878 185.9376,509.3753 189.0626,512.5003 192.1876,514.0628 196.8751,514.0628 200.0001,512.5003 203.1251,509.3753"/>
    <polygon points="215.6251,495.3128 214.0626,496.8753 215.6251,498.4378 217.1876,496.8753"/>
    <polygon points="215.6251,506.2503 214.0626,507.8128 215.6251,509.3753 217.1876,507.8128"/>
    <polyline points="271.8751,485.9378 270.3126,482.8128 265.6251,481.2503 262.5001,481.2503 257.8126,482.8128 254.6876,487.5003 253.1251,495.3128 253.1251,503.1253 254.6876,509.3753 257.8126,512.5003 262.5001,514.0628 264.0626,514.0628 268.7501,512.5003 271.8751,509.3753 273.4376,504.6878 273.4376,503.1253 271.8751,498.4378 268.7501,495.3128 264.0626,493.7503 262.5001,493.7503 257.8126,495.3128 254.6876,498.4378 253.1251,503.1253"/>
    <polygon points="284.3752,506.2503 282.8127,507.8128 284.3752,509.3753 285.9377,507.8128"/>
    <polyline points="310.9377,481.2503 295.3127,503.1253 318.7502,503.1253"/>
    <line x1="310.9377" x2="310.9377" y1="481.2503" y2="514.0628"/>
    <line x1="353.1252" x2="353.1252" y1="481.2503" y2="514.0628"/>
    <line x1="368.7502" x2="353.1252" y1="492.1878" y2="507.8128"/>
    <line x1="359.3752" x2="370.3127" y1="501.5628" y2="514.0628"/>
    <line x1="379.6877" x2="379.6877" y1="492.1878" y2="514.0628"/>
    <polyline points="379.6877,498.4378 384.3752,493.7503 387.5002,492.1878 392.1877,492.1878 395.3127,493.7503 396.8752,498.4378 396.8752,514.0628"/>
    <polyline points="396.8752,498.4378 401.5627,493.7503 404.6877,492.1878 409.3752,492.1878 412.5002,493.7503 414.0627,498.4378 414.0627,514.0628"/>
    <line x1="451.5627" x2="423.4377" y1="475.0003" y2="525.0003"/>
    <line x1="460.9377" x2="460.9377" y1="481.2503" y2="514.0628"/>
    <polyline points="460.9377,498.4378 465.6253,493.7503 468.7503,492.1878 473.4378,492.1878 476.5628,493.7503 478.1253,498.4378 478.1253,514.0628"/>
    <polyline points="106.2501,561.2503 106.2501,584.6878 107.8126,589.3753 110.9376,592.5003 115.6251,594.0628 118.7501,594.0628 123.4376,592.5003 126.5626,589.3753 128.1251,584.6878 128.1251,561.2503"/>
    <line x1="135.9376" x2="148.4376" y1="561.2503" y2="594.0628"/>
    <line x1="160.9376" x2="148.4376" y1="561.2503" y2="594.0628"/>
    <polygon points="168.7501,575.3128 167.1876,576.8753 168.7501,578.4378 170.3126,576.8753"/>
    <polygon points="168.7501,586.2503 167.1876,587.8128 168.7501,589.3753 170.3126,587.8128"/>
    <polyline points="206.2501,569.0628 206.2501,567.5003 207.8126,564.3753 209.3751,562.8128 212.5001,561.2503 218.7501,561.2503 221.8751,562.8128 223.4376,564.3753 225.0001,567.5003 225.0001,570.6253 223.4376,573.7503 220.3126,578.4378 204.6876,594.0628 226.5626,594.0628"/>
    <polygon points="237.5001,586.2503 235.9376,587.8128 237.5001,589.3753 239.0626,587.8128"/>
    <polygon points="257.8126,561.2503 253.1251,562.8128 250.0001,567.5003 248.4376,575.3128 248.4376,580.0003 250.0001,587.8128 253.1251,592.5003 257.8126,594.0628 260.9376,594.0628 265.6251,592.5003 268.7501,587.8128 270.3126,580.0003 270.3126,575.3128 268.7501,567.5003 265.6251,562.8128 260.9376,561.2503"/>
    <line x1="106.2501" x2="106.2501" y1="641.2503" y2="674.0629"/>
    <polyline points="106.2501,641.2503 120.3126,641.2503 125.0001,642.8128 126.5626,644.3753 128.1251,647.5003 128.1251,650.6254 126.5626,653.7504 125.0001,655.3129 120.3126,656.8754 106.2501,656.8754"/>
    <line x1="117.1876" x2="128.1251" y1="656.8754" y2="674.0629"/>
    <line x1="156.2501" x2="156.2501" y1="652.1879" y2="674.0629"/>
    <polyline points="156.2501,656.8754 153.1251,653.7504 150.0001,652.1879 145.3126,652.1879 142.1876,653.7504 139.0626,656.8754 137.5001,661.5629 137.5001,664.6879 139.0626,669.3754 142.1876,672.5004 145.3126,674.0629 150.0001,674.0629 153.1251,672.5004 156.2501,669.3754"/>
    <polygon points="167.1876,641.2503 168.7501,642.8128 170.3126,641.2503 168.7501,639.6878"/>
    <line x1="168.7501" x2="168.7501" y1="652.1879" y2="674.0629"/>
    <line x1="181.2501" x2="181.2501" y1="652.1879" y2="674.0629"/>
    <polyline points="181.2501,658.4379 185.9376,653.7504 189.0626,652.1879 193.7501,652.1879 196.8751,653.7504 198.4376,658.4379 198.4376,674.0629"/>
    <polygon points="210.9376,655.3129 209.3751,656.8754 210.9376,658.4379 212.5001,656.8754"/>
    <polygon points="210.9376,666.2504 209.3751,667.8129 210.9376,669.3754 212.5001,667.8129"/>
    <polygon points="256.2501,641.2503 251.5626,642.8128 248.4376,647.5003 246.8751,655.3129 246.8751,660.0004 248.4376,667.8129 251.5626,672.5004 256.2501,674.0629 259.3751,674.0629 264.0626,672.5004 267.1876,667.8129 268.7501,660.0004 268.7501,655.3129 267.1876,647.5003 264.0626,642.8128 259.3751,641.2503"/>
    <polygon points="279.6877,666.2504 278.1252,667.8129 279.6877,669.3754 281.2502,667.8129"/>
    <polygon points="300.0002,641.2503 295.3127,642.8128 292.1877,647.5003 290.6252,655.3129 290.6252,660.0004 292.1877,667.8129 295.3127,672.5004 300.0002,674.0629 303.1252,674.0629 307.8127,672.5004 310.9377,667.8129 312.5002,660.0004 312.5002,655.3129 310.9377,647.5003 307.8127,642.8128 303.1252,641.2503"/>
    <polygon points="331.2502,641.2503 326.5627,642.8128 323.4377,647.5003 321.8752,655.3129 321.8752,660.0004 323.4377,667.8129 326.5627,672.5004 331.2502,674.0629 334.3752,674.0629 339.0627,672.5004 342.1877,667.8129 343.7502,660.0004 343.7502,655.3129 342.1877,647.5003 339.0627,642.8128 334.3752,641.2503"/>
    <polyline points="396.8752,656.8754 393.7502,653.7504 390.6252,652.1879 385.9377,652.1879 382.8127,653.7504 379.6877,656.8754 378.1252,661.5629 378.1252,664.6879 379.6877,669.3754 382.8127,672.5004 385.9377,674.0629 390.6252,674.0629 393.7502,672.5004 396.8752,669.3754"/>
    <line x1="407.8127" x2="407.8127" y1="652.1879" y2="674.0629"/>
    <polyline points="407.8127,658.4379 412.5002,653.7504 415.6252,652.1879 420.3127,652.1879 423.4377,653.7504 425.0002,658.4379 425.0002,674.0629"/>
    <polyline points="425.0002,658.4379 429.6877,653.7504 432.8127,652.1879 437.5002,652.1879 440.6252,653.7504 442.1877,658.4379 442.1877,674.0629"/>
    <line x1="106.2501" x2="106.2501" y1="721.2504" y2="754.0629"/>
    <polyline points="106.2501,721.2504 120.3126,721.2504 125.0001,722.8129 126.5626,724.3754 128.1251,727.5004 128.1251,732.1879 126.5626,735.3129 125.0001,736.8754 120.3126,738.4379 106.2501,738.4379"/>
    <line x1="139.0626" x2="139.0626" y1="732.1879" y2="754.0629"/>
    <polyline points="139.0626,741.5629 140.6251,736.8754 143.7501,733.7504 146.8751,732.1879 151.5626,732.1879"/>
    <polyline points="157.8126,741.5629 176.5626,741.5629 176.5626,738.4379 175.0001,735.3129 173.4376,733.7504 170.3126,732.1879 165.6251,732.1879 162.5001,733.7504 159.3751,736.8754 157.8126,741.5629 157.8126,744.6879 159.3751,749.3754 162.5001,752.5004 165.6251,754.0629 170.3126,754.0629 173.4376,752.5004 176.5626,749.3754"/>
    <polyline points="203.1251,736.8754 201.5626,733.7504 196.8751,732.1879 192.1876,732.1879 187.5001,733.7504 185.9376,736.8754 187.5001,740.0004 190.6251,741.5629 198.4376,743.1254 201.5626,744.6879 203.1251,747.8129 203.1251,749.3754 201.5626,752.5004 196.8751,754.0629 192.1876,754.0629 187.5001,752.5004 185.9376,749.3754"/>
    <polyline points="229.6876,736.8754 228.1251,733.7504 223.4376,732.1879 218.7501,732.1879 214.0626,733.7504 212.5001,736.8754 214.0626,740.0004 217.1876,741.5629 225.0001,743.1254 228.1251,744.6879 229.6876,747.8129 229.6876,749.3754 228.1251,752.5004 223.4376,754.0629 218.7501,754.0629 214.0626,752.5004 212.5001,749.3754"/>
    <polyline points="240.6251,732.1879 240.6251,747.8129 242.1876,752.5004 245.3126,754.0629 250.0001,754.0629 253.1251,752.5004 257.8126,747.8129"/>
    <line x1="257.8126" x2="257.8126" y1="732.1879" y2="754.0629"/>
    <line x1="270.3126" x2="270.3126" y1="732.1879" y2="754.0629"/>
    <polyline points="270.3126,741.5629 271.8751,736.8754 275.0001,733.7504 278.1252,732.1879 282.8127,732.1879"/>
    <polyline points="289.0627,741.5629 307.8127,741.5629 307.8127,738.4379 306.2502,735.3129 304.6877,733.7504 301.5627,732.1879 296.8752,732.1879 293.7502,733.7504 290.6252,736.8754 289.0627,741.5629 289.0627,744.6879 290.6252,749.3754 293.7502,752.5004 296.8752,754.0629 301.5627,754.0629 304.6877,752.5004 307.8127,749.3754"/>
    <polygon points="318.7502,735.3129 317.1877,736.8754 318.7502,738.4379 320.3127,736.8754"/>
    <polygon points="318.7502,746.2504 317.1877,747.8129 318.7502,749.3754 320.3127,747.8129"/>
    <polyline points="359.3752,727.5004 362.5002,725.9379 367.1877,721.2504 367.1877,754.0629"/>
    <polygon points="395.3127,721.2504 390.6252,722.8129 387.5002,727.5004 385.9377,735.3129 385.9377,740.0004 387.5002,747.8129 390.6252,752.5004 395.3127,754.0629 398.4377,754.0629 403.1252,752.5004 406.2502,747.8129 407.8127,740.0004 407.8127,735.3129 406.2502,727.5004 403.1252,722.8129 398.4377,721.2504"/>
    <polyline points="421.8752,727.5004 425.0002,725.9379 429.6877,721.2504 429.6877,754.0629"/>
    <polyline points="468.7503,732.1879 467.1878,736.8754 464.0628,740.0004 459.3752,741.5629 457.8127,741.5629 453.1252,740.0004 450.0002,736.8754 448.4377,732.1879 448.4377,730.6254 450.0002,725.9379 453.1252,722.8129 457.8127,721.2504 459.3752,721.2504 464.0628,722.8129 467.1878,725.9379 468.7503,732.1879 468.7503,740.0004 467.1878,747.8129 464.0628,752.5004 459.3752,754.0629 456.2502,754.0629 451.5627,752.5004 450.0002,749.3754"/>
    <polygon points="481.2503,746.2504 479.6878,747.8129 481.2503,749.3754 482.8128,747.8129"/>
    <polyline points="510.9378,721.2504 495.3128,721.2504 493.7503,735.3129 495.3128,733.7504 500.0003,732.1879 504.6878,732.1879 509.3753,733.7504 512.5003,736.8754 514.0628,741.5629 514.0628,744.6879 512.5003,749.3754 509.3753,752.5004 504.6878,754.0629 500.0003,754.0629 495.3128,752.5004 493.7503,750.9379 492.1878,747.8129"/>
    <line x1="550.0003" x2="550.0003" y1="732.1879" y2="754.0629"/>
    <polyline points="550.0003,738.4379 554.6878,733.7504 557.8128,732.1879 562.5003,732.1879 565.6253,733.7504 567.1878,738.4379 567.1878,754.0629"/>
    <polyline points="567.1878,738.4379 571.8753,733.7504 575.0003,732.1879 579.6878,732.1879 582.8128,733.7504 584.3753,738.4379 584.3753,754.0629"/>
    <line x1="596.8753" x2="596.8753" y1="721.2504" y2="754.0629"/>
    <polyline points="596.8753,736.8754 600.0003,733.7504 603.1253,732.1879 607.8128,732.1879 610.9378,733.7504 614.0628,736.8754 615.6253,741.5629 615.6253,744.6879 614.0628,749.3754 610.9378,752.5004 607.8128,754.0629 603.1253,754.0629 600.0003,752.5004 596.8753,749.3754"/>
    <line x1="643.7503" x2="643.7503" y1="732.1879" y2="754.0629"/>
    <polyline points="643.7503,736.8754 640.6253,733.7504 637.5003,732.1879 632.8128,732.1879 629.6878,733.7504 626.5628,736.8754 625.0003,741.5629 625.0003,744.6879 626.5628,749.3754 629.6878,752.5004 632.8128,754.0629 637.5003,754.0629 640.6253,752.5004 643.7503,749.3754"/>
    <line x1="656.2504" x2="656.2504" y1="732.1879" y2="754.0629"/>
    <polyline points="656.2504,741.5629 657.8129,736.8754 660.9379,733.7504 664.0629,732.1879 668.7504,732.1879"/>
  </g>
</svg>
